General
Complete name                            : ../.././Samples/nocturne_60fps_s01e03_vdm_hdr_p3d65_pq_20180307_02_3840x2160_dovi_4000nit_imf_ml8_3200Mbps_51_Mixdown.mxf
Format                                   : MXF
Format version                           : 1.3
Format profile                           : OP-1a
Format settings                          : Closed / Complete
File size                                : 548 MiB
Duration                                 : 11 min 4 s
Overall bit rate                         : 6 912 kb/s
Encoded date                             : 2018-03-09 04:32:38.648
Writing application                      : Rohde and Schwarz Clipster 6.2.1.10.1
Writing library                          : Windows 7 Service Pack 1 (64-bit) 2.18.4.16417.1

Audio
ID                                       : 2
Format                                   : PCM
Format settings                          : Little
Format settings, wrapping mode           : Clip (BWF)
Codec ID                                 : 0D01030102060200
Duration                                 : 11 min 4 s
Bit rate mode                            : Constant
Bit rate                                 : 6 912 kb/s
Channel(s)                               : 6 channels
Channel positions                        : Front: L C R, Side: L R, LFE
Sampling rate                            : 48.0 kHz
Bit depth                                : 24 bits
Stream size                              : 548 MiB (100%)
Title                                    : FP Sound track
Language                                 : zxx
Locked                                   : Yes
MCA Title                                : Nocturne 51 Mixdown
MCA Title Version                        : 20171218
MCA Audio Content Kind                   : Master
MCA Audio Element Kind                   : Composite Mix

Other #1
ID                                       : 1-Material
Type                                     : Time code
Format                                   : MXF TC
Time code of first frame                 : 00:00:00:00
Time code settings                       : Material Package
Time code, striped                       : Yes

Other #2
ID                                       : 1-Source
Type                                     : Time code
Format                                   : MXF TC
Time code of first frame                 : 00:00:00:00
Time code settings                       : Source Package
Time code, striped                       : Yes


General
Complete name                            : ../.././Samples/nocturne_60fps_s01e03_vdm_hdr_p3d65_pq_20180307_02_3840x2160_dovi_4000nit_imf_ml8_3200Mbps_51_Mixdown.mxf
Format                                   : MXF
Format version                           : 1.3
Format profile                           : OP-1a
Format settings                          : Closed / Complete
File size                                : 548 MiB
Duration                                 : 11 min 4 s
Overall bit rate                         : 6 912 kb/s
Encoded date                             : 2018-03-09 04:32:38.648
Writing application                      : Rohde and Schwarz Clipster 6.2.1.10.1
Writing library                          : Windows 7 Service Pack 1 (64-bit) 2.18.4.16417.1

Audio
ID                                       : 2
Format                                   : PCM
Format settings                          : Little
Format settings, wrapping mode           : Clip (BWF)
Codec ID                                 : 0D01030102060200
Duration                                 : 11 min 4 s
Bit rate mode                            : Constant
Bit rate                                 : 6 912 kb/s
Channel(s)                               : 6 channels
Channel positions                        : Front: L C R, Side: L R, LFE
Sampling rate                            : 48.0 kHz
Bit depth                                : 24 bits
Stream size                              : 548 MiB (100%)
Title                                    : FP Sound track
Language                                 : zxx
Locked                                   : Yes
MCA Title                                : Nocturne 51 Mixdown
MCA Title Version                        : 20171218
MCA Audio Content Kind                   : Master
MCA Audio Element Kind                   : Composite Mix

Other #1
ID                                       : 1-Material
Type                                     : Time code
Format                                   : MXF TC
Time code of first frame                 : 00:00:00:00
Time code settings                       : Material Package
Time code, striped                       : Yes

Other #2
ID                                       : 1-Source
Type                                     : Time code
Format                                   : MXF TC
Time code of first frame                 : 00:00:00:00
Time code settings                       : Source Package
Time code, striped                       : Yes


